# xmcd
#
# Track frame offsets: 
#        150
#        20573
#        38223
#        82098
#        103023
#        124673
#        154748
#
# Disc length: 2482 seconds
#
# Revision: 0
# Processed by: cddbd v1.5.2PL0 Copyright (c) Steve Scherf et al.
# Submitted via: ExactAudioCopyFreeDBPlugin 1.0
#
DISCID=5309b007
DTITLE=Jo Hell - Still Alive
DYEAR=2017
DGENRE=blues
TTITLE0=Who Do You Love
TTITLE1=Teenie Weenie Bit
TTITLE2=Don't Want To Be Alone
TTITLE3=That's Alright Mama
TTITLE4=Drift Away
TTITLE5=King Bee
TTITLE6=Got My Mojo Working
EXTD=
EXTT0=
EXTT1=
EXTT2=
EXTT3=
EXTT4=
EXTT5=
EXTT6=
PLAYORDER=
